M48
; DRILL file KiCad 10.0.5 date 2026-09-30T16:39:10
; FORMAT={-:-/ absolute / metric / decimal}
; #@! TF.CreationDate,2026-09-30T16:39:10+04:00
; #@! TF.GenerationSoftware,Kicad,Pcbnew,10.0.5
; #@! TF.FileFunction,NonPlated,1,2,NPTH
FMAT,2
METRIC
; #@! TA.AperFunction,NonPlated,NPTH,ComponentDrill
T1C0.650
; #@! TA.AperFunction,NonPlated,NPTH,ComponentDrill
T2C1.750
; #@! TA.AperFunction,NonPlated,NPTH,ComponentDrill
T3C1.850
; #@! TA.AperFunction,NonPlated,NPTH,ComponentDrill
T4C2.200
; #@! TA.AperFunction,NonPlated,NPTH,ComponentDrill
T5C3.988
; #@! TA.AperFunction,NonPlated,NPTH,ComponentDrill
T6C4.000
%
G90
G05
T1
X355.51Y-46.405
X361.29Y-46.405
T2
X32.84Y-137.1
X35.49Y-93.64
X37.84Y-72.6
X39.99Y-51.64
X40.11Y-115.56
X43.0Y-137.1
X45.65Y-93.64
X48.0Y-72.6
X50.15Y-51.64
X50.27Y-115.56
X54.73Y-137.14
X58.73Y-93.54
X63.73Y-72.64
X64.89Y-137.14
X68.23Y-51.64
X68.89Y-93.54
X69.0Y-115.6
X73.89Y-72.64
X76.73Y-137.14
X78.39Y-51.64
X79.16Y-115.6
X79.93Y-93.54
X85.5Y-72.6
X86.89Y-137.14
X89.5Y-51.6
X90.09Y-93.54
X90.92Y-115.6
X95.66Y-72.6
X99.66Y-51.6
X101.08Y-115.6
X101.33Y-93.54
X107.0Y-72.6
X110.73Y-51.64
X111.49Y-93.54
X112.8Y-115.6
X117.16Y-72.6
X120.89Y-51.64
X122.96Y-115.6
X123.18Y-93.48
X128.88Y-72.68
X132.23Y-51.64
X133.34Y-93.48
X134.4Y-115.6
X139.04Y-72.68
X142.39Y-51.64
X144.56Y-115.6
X145.18Y-93.48
X150.42Y-72.64
X153.5Y-51.6
X155.34Y-93.48
X155.6Y-115.6
X160.58Y-72.64
X163.66Y-51.6
X165.76Y-115.6
X167.18Y-93.52
X171.5Y-72.6
X174.73Y-51.64
X176.83Y-115.64
X177.34Y-93.52
X181.66Y-72.6
X184.89Y-51.64
X186.99Y-115.64
X188.87Y-93.44
X193.0Y-72.6
X195.92Y-51.6
X197.98Y-115.68
X199.03Y-93.44
X203.16Y-72.6
X206.08Y-51.6
X208.14Y-115.68
X210.33Y-93.52
X214.34Y-72.68
X217.84Y-51.6
X219.1Y-115.6
X220.34Y-137.1
X220.49Y-93.52
X224.5Y-72.68
X228.0Y-51.6
X229.26Y-115.6
X230.5Y-137.1
X231.33Y-93.54
X235.69Y-72.72
X239.38Y-51.68
X240.1Y-115.6
X241.49Y-93.54
X242.42Y-137.1
X245.85Y-72.72
X249.54Y-51.68
X250.26Y-115.6
X252.13Y-93.48
X252.58Y-137.1
X256.69Y-72.68
X261.0Y-51.6
X261.1Y-115.6
X262.29Y-93.48
X264.84Y-137.14
X266.85Y-72.68
X271.16Y-51.6
X271.26Y-115.6
X275.0Y-137.14
X280.33Y-93.54
X282.69Y-72.64
X284.88Y-51.68
X284.88Y-115.64
X287.34Y-137.18
X290.49Y-93.54
X292.85Y-72.64
X295.04Y-51.68
X295.04Y-115.64
X297.5Y-137.18
X308.44Y-51.6
X318.6Y-51.6
T3
X338.575Y-47.755
X343.425Y-47.755
T4
X338.275Y-44.725
X343.725Y-44.725
T5
X37.92Y-137.1
X40.57Y-93.64
X42.92Y-72.6
X45.07Y-51.64
X45.19Y-115.56
X59.81Y-137.14
X63.81Y-93.54
X68.81Y-72.64
X73.31Y-51.64
X74.08Y-115.6
X81.81Y-137.14
X85.01Y-93.54
X90.58Y-72.6
X94.58Y-51.6
X96.0Y-115.6
X103.5Y-145.34
X106.41Y-93.54
X112.08Y-72.6
X115.81Y-51.64
X117.88Y-115.6
X128.26Y-93.48
X133.96Y-72.68
X137.31Y-51.64
X139.48Y-115.6
X150.26Y-93.48
X155.5Y-72.64
X158.58Y-51.6
X160.68Y-115.6
X172.26Y-93.52
X176.58Y-72.6
X179.81Y-51.64
X181.91Y-115.64
X193.95Y-93.44
X198.08Y-72.6
X201.0Y-51.6
X203.06Y-115.68
X203.512Y-145.34
X215.41Y-93.52
X219.42Y-72.68
X222.92Y-51.6
X224.18Y-115.6
X225.42Y-137.1
X236.41Y-93.54
X240.77Y-72.72
X244.46Y-51.68
X245.18Y-115.6
X247.5Y-137.1
X257.21Y-93.48
X261.77Y-72.68
X266.08Y-51.6
X266.18Y-115.6
X269.92Y-137.14
X285.41Y-93.54
X287.77Y-72.64
X289.96Y-51.68
X289.96Y-115.64
X292.42Y-137.18
X313.52Y-51.6
T6
X153.81Y-137.14
M30
