M48
; DRILL file KiCad 10.0.5 date 2026-09-30T16:39:10
; FORMAT={-:-/ absolute / metric / decimal}
; #@! TF.CreationDate,2026-09-30T16:39:10+04:00
; #@! TF.GenerationSoftware,Kicad,Pcbnew,10.0.5
; #@! TF.FileFunction,Plated,1,2,PTH
FMAT,2
METRIC
; #@! TA.AperFunction,Plated,PTH,ViaDrill
T1C0.300
; #@! TA.AperFunction,Plated,PTH,ComponentDrill
T2C0.600
; #@! TA.AperFunction,Plated,PTH,ComponentDrill
T3C0.800
; #@! TA.AperFunction,Plated,PTH,ComponentDrill
T4C1.000
; #@! TA.AperFunction,Plated,PTH,ComponentDrill
T5C1.500
; #@! TA.AperFunction,Plated,PTH,ComponentDrill
T6C1.524
; #@! TA.AperFunction,Plated,PTH,ComponentDrill
T7C3.048
%
G90
G05
T1
X50.2Y-41.8
X87.4Y-109.4
X153.8Y-131.6
X169.6Y-98.32
X174.0Y-108.2
X190.8Y-97.6
X194.6Y-108.0
X207.0Y-126.4
X215.4Y-97.2
X220.0Y-109.8
X233.6Y-98.0
X253.8Y-98.2
X263.4Y-117.0
X267.8Y-119.2
X285.4Y-110.2
X286.6Y-101.6
X287.4Y-117.4
X287.6Y-97.6
X296.8Y-100.6
X297.241Y-107.8
X298.0Y-108.2
X298.8Y-106.6
X301.0Y-100.0
X301.8Y-108.2
X302.8Y-99.0
X303.4Y-56.2
X304.2Y-63.2
X304.6Y-138.4
X306.2Y-101.8
X307.0Y-120.2
X307.4Y-64.4
X307.4Y-72.0
X308.0Y-77.4
X308.0Y-96.6
X308.0Y-108.6
X308.0Y-142.0
X308.8Y-104.2
X308.8Y-108.4
X309.0Y-107.6
X309.4Y-106.6
X310.4Y-80.6
X310.4Y-105.8
X310.6Y-60.4
X310.6Y-135.4
X310.8Y-101.6
X311.2Y-56.2
X311.2Y-59.0
X312.0Y-82.4
X312.845Y-108.4
X313.2Y-141.4
X314.4Y-83.8
X314.4Y-102.8
X314.6Y-78.2
X314.6Y-80.0
X314.678Y-108.758
X315.4Y-85.8
X316.4Y-97.6
X317.4Y-104.0
X318.8Y-105.2
X319.0Y-77.4
X321.2Y-141.2
X321.6Y-119.4
X322.8Y-93.0
X325.2Y-90.4
X325.8Y-109.6
X327.4Y-58.2
X327.4Y-80.2
X327.8Y-64.4
X329.2Y-116.2
X330.8Y-117.2
X330.8Y-122.4
X345.0Y-111.6
X347.4Y-48.4
X354.4Y-67.4
X362.4Y-91.0
X364.4Y-87.0
T3
X48.6Y-132.59
X48.6Y-140.21
X53.6Y-89.99
X53.6Y-97.61
X57.2Y-47.39
X57.2Y-55.01
X58.2Y-68.8
X58.2Y-76.42
X63.0Y-110.79
X63.0Y-118.41
X71.0Y-132.99
X71.0Y-140.61
X74.6Y-90.19
X74.6Y-97.81
X79.6Y-67.98
X79.6Y-75.6
X84.0Y-47.38
X84.0Y-55.0
X85.2Y-111.59
X85.2Y-119.21
X92.8Y-132.79
X92.8Y-140.41
X95.8Y-90.79
X95.8Y-98.41
X100.6Y-68.18
X100.6Y-75.8
X105.2Y-47.99
X105.2Y-55.61
X106.6Y-112.2
X106.6Y-119.82
X118.2Y-88.77
X118.2Y-96.39
X122.8Y-68.58
X122.8Y-76.2
X126.5Y-47.58
X126.5Y-55.2
X128.8Y-112.2
X128.8Y-119.82
X139.4Y-87.98
X139.4Y-95.6
X144.6Y-69.19
X144.6Y-76.81
X148.2Y-47.59
X148.2Y-55.21
X149.8Y-112.0
X149.8Y-119.62
X161.2Y-89.98
X161.2Y-97.6
X165.4Y-68.99
X165.4Y-76.61
X169.6Y-47.58
X169.6Y-55.2
X171.2Y-111.39
X171.2Y-119.01
X183.4Y-88.8
X183.4Y-96.42
X187.4Y-68.39
X187.4Y-76.01
X189.8Y-47.19
X189.8Y-54.81
X192.8Y-111.18
X192.8Y-118.8
X204.6Y-88.79
X204.6Y-96.41
X209.4Y-68.18
X209.4Y-75.8
X212.0Y-46.78
X212.0Y-54.4
X213.8Y-111.99
X213.8Y-119.61
X214.6Y-134.2
X214.6Y-141.82
X226.2Y-89.59
X226.2Y-97.21
X229.8Y-68.19
X229.8Y-75.81
X233.6Y-47.18
X233.6Y-54.8
X234.0Y-112.58
X234.0Y-120.2
X236.4Y-132.59
X236.4Y-140.21
X247.6Y-89.79
X247.6Y-97.41
X251.4Y-69.39
X251.4Y-77.01
X255.2Y-47.58
X255.2Y-55.2
X255.4Y-110.98
X255.4Y-118.6
X259.0Y-132.79
X259.0Y-140.41
X268.2Y-90.2
X268.2Y-97.82
X272.4Y-68.79
X272.4Y-76.41
X276.8Y-46.18
X276.8Y-53.8
X276.8Y-112.0
X276.8Y-119.62
X281.8Y-133.79
X281.8Y-141.41
X298.8Y-90.2
X298.8Y-97.82
X299.4Y-67.79
X299.4Y-75.41
X300.0Y-112.6
X300.0Y-120.22
X300.2Y-46.98
X300.2Y-54.6
X301.6Y-134.8
X301.6Y-142.42
T4
X341.584Y-74.425
X344.124Y-74.425
X346.664Y-74.425
T5
X150.0Y-134.6
X156.35Y-132.06
T6
X34.11Y-134.56
X36.76Y-91.1
X39.11Y-70.06
X40.46Y-132.02
X41.26Y-49.1
X41.38Y-113.02
X43.11Y-88.56
X45.46Y-67.52
X47.61Y-46.56
X47.73Y-110.48
X56.0Y-134.6
X60.0Y-91.0
X62.35Y-132.06
X65.0Y-70.1
X66.35Y-88.46
X69.5Y-49.1
X70.27Y-113.06
X71.35Y-67.56
X75.85Y-46.56
X76.62Y-110.52
X78.0Y-134.6
X81.2Y-91.0
X84.35Y-132.06
X86.77Y-70.06
X87.55Y-88.46
X90.77Y-49.06
X92.19Y-113.06
X93.12Y-67.52
X97.12Y-46.52
X98.54Y-110.52
X102.6Y-91.0
X108.27Y-70.06
X108.95Y-88.46
X112.0Y-49.1
X114.07Y-113.06
X114.62Y-67.52
X118.35Y-46.56
X120.42Y-110.52
X124.45Y-90.94
X130.15Y-70.14
X130.8Y-88.4
X133.5Y-49.1
X135.67Y-113.06
X136.5Y-67.6
X139.85Y-46.56
X142.02Y-110.52
X146.45Y-90.94
X151.69Y-70.1
X152.8Y-88.4
X154.77Y-49.06
X156.87Y-113.06
X158.04Y-67.56
X161.12Y-46.52
X163.22Y-110.52
X168.45Y-90.98
X172.77Y-70.06
X174.8Y-88.44
X176.0Y-49.1
X178.1Y-113.1
X179.12Y-67.52
X182.35Y-46.56
X184.45Y-110.56
X190.14Y-90.9
X194.27Y-70.06
X196.49Y-88.36
X197.19Y-49.06
X199.25Y-113.14
X200.62Y-67.52
X203.54Y-46.52
X205.6Y-110.6
X211.6Y-90.98
X215.61Y-70.14
X217.95Y-88.44
X219.11Y-49.06
X220.37Y-113.06
X221.61Y-134.56
X221.96Y-67.6
X225.46Y-46.52
X226.72Y-110.52
X227.96Y-132.02
X232.6Y-91.0
X236.96Y-70.18
X238.95Y-88.46
X240.65Y-49.14
X241.37Y-113.06
X243.31Y-67.64
X243.69Y-134.56
X247.0Y-46.6
X247.72Y-110.52
X250.04Y-132.02
X253.4Y-90.94
X257.96Y-70.14
X259.75Y-88.4
X262.27Y-49.06
X262.37Y-113.06
X264.31Y-67.6
X266.11Y-134.6
X268.62Y-46.52
X268.72Y-110.52
X272.46Y-132.06
X281.6Y-91.0
X283.96Y-70.1
X286.15Y-49.14
X286.15Y-113.1
X287.95Y-88.46
X288.61Y-134.64
X290.31Y-67.56
X292.5Y-46.6
X292.5Y-110.56
X294.96Y-132.1
X309.71Y-49.06
X316.06Y-46.52
T7
X103.5Y-130.1
X203.512Y-130.1
T2
G00X354.08Y-43.125
M15
G01X354.08Y-42.325
M16
G05
G00X354.08Y-47.455
M15
G01X354.08Y-46.355
M16
G05
G00X362.72Y-43.125
M15
G01X362.72Y-42.325
M16
G05
G00X362.72Y-47.455
M15
G01X362.72Y-46.355
M16
G05
M30
