%TF.GenerationSoftware,KiCad,Pcbnew,10.0.5*%
%TF.CreationDate,2026-09-30T16:39:13+04:00*%
%TF.ProjectId,Keyboard,4b657962-6f61-4726-942e-6b696361645f,rev?*%
%TF.SameCoordinates,Original*%
%TF.FileFunction,Copper,L2,Bot*%
%TF.FilePolarity,Positive*%
%FSLAX46Y46*%
G04 Gerber Fmt 4.6, Leading zero omitted, Abs format (unit mm)*
G04 Created by KiCad (PCBNEW 10.0.5) date 2026-09-30 16:39:13*
%MOMM*%
%LPD*%
G01*
G04 APERTURE LIST*
G04 Aperture macros list*
%AMRoundRect*
0 Rectangle with rounded corners*
0 $1 Rounding radius*
0 $2 $3 $4 $5 $6 $7 $8 $9 X,Y pos of 4 corners*
0 Add a 4 corners polygon primitive as box body*
4,1,4,$2,$3,$4,$5,$6,$7,$8,$9,$2,$3,0*
0 Add four circle primitives for the rounded corners*
1,1,$1+$1,$2,$3*
1,1,$1+$1,$4,$5*
1,1,$1+$1,$6,$7*
1,1,$1+$1,$8,$9*
0 Add four rect primitives between the rounded corners*
20,1,$1+$1,$2,$3,$4,$5,0*
20,1,$1+$1,$4,$5,$6,$7,0*
20,1,$1+$1,$6,$7,$8,$9,0*
20,1,$1+$1,$8,$9,$2,$3,0*%
G04 Aperture macros list end*
%TA.AperFunction,ComponentPad*%
%ADD10RoundRect,0.200000X-0.600000X-0.600000X0.600000X-0.600000X0.600000X0.600000X-0.600000X0.600000X0*%
%TD*%
%TA.AperFunction,ComponentPad*%
%ADD11C,1.600000*%
%TD*%
%TA.AperFunction,ComponentPad*%
%ADD12RoundRect,0.250000X0.550000X-0.550000X0.550000X0.550000X-0.550000X0.550000X-0.550000X-0.550000X0*%
%TD*%
%TA.AperFunction,ComponentPad*%
%ADD13C,2.300000*%
%TD*%
%TA.AperFunction,ComponentPad*%
%ADD14C,4.000000*%
%TD*%
%TA.AperFunction,ComponentPad*%
%ADD15C,2.500000*%
%TD*%
%TA.AperFunction,ComponentPad*%
%ADD16O,1.000000X2.100000*%
%TD*%
%TA.AperFunction,ComponentPad*%
%ADD17O,1.000000X1.800000*%
%TD*%
%TA.AperFunction,ViaPad*%
%ADD18C,0.600000*%
%TD*%
%TA.AperFunction,Conductor*%
%ADD19C,0.200000*%
%TD*%
G04 APERTURE END LIST*
D10*
%TO.P,A2,D1*%
%TO.N,N/C*%
X341584100Y-74425000D03*
D11*
%TO.P,A2,D2*%
X344124100Y-74425000D03*
%TO.P,A2,D3*%
X346664100Y-74425000D03*
%TD*%
D12*
%TO.P,D49,1,K_1*%
%TO.N,/Row5*%
X236400000Y-140210000D03*
D11*
%TO.P,D49,2,A_2*%
%TO.N,Net-(D49-A)*%
X236400000Y-132590000D03*
%TD*%
D12*
%TO.P,D23,1,K_1*%
%TO.N,/Row3*%
X226200000Y-97210000D03*
D11*
%TO.P,D23,2,A_2*%
%TO.N,Net-(D23-A)*%
X226200000Y-89590000D03*
%TD*%
D12*
%TO.P,D4,1,K_1*%
%TO.N,/Row2*%
X100600000Y-75800000D03*
D11*
%TO.P,D4,2,A_2*%
%TO.N,Net-(D4-A)*%
X100600000Y-68180000D03*
%TD*%
D13*
%TO.P,SW14,1,1_1*%
%TO.N,/Col1*%
X36760000Y-91100000D03*
%TO.P,SW14,2,2_2*%
%TO.N,Net-(D14-A)*%
X43110000Y-88560000D03*
%TD*%
D12*
%TO.P,D52,1,K_1*%
%TO.N,/Row5*%
X301600000Y-142420000D03*
D11*
%TO.P,D52,2,A_2*%
%TO.N,Net-(D52-A)*%
X301600000Y-134800000D03*
%TD*%
D13*
%TO.P,SW23,1,1_1*%
%TO.N,/Col10*%
X211600000Y-90980000D03*
%TO.P,SW23,2,2_2*%
%TO.N,Net-(D23-A)*%
X217950000Y-88440000D03*
%TD*%
%TO.P,SW16,1,1_1*%
%TO.N,/Col3*%
X60000000Y-91000000D03*
%TO.P,SW16,2,2_2*%
%TO.N,Net-(D16-A)*%
X66350000Y-88460000D03*
%TD*%
%TO.P,SW47,1,1_1*%
%TO.N,/Col4*%
X90770000Y-49060000D03*
%TO.P,SW47,2,2_2*%
%TO.N,Net-(D47-A)*%
X97120000Y-46520000D03*
%TD*%
%TO.P,SW59,1,1_1*%
%TO.N,/Col11*%
X240650000Y-49140000D03*
%TO.P,SW59,2,2_2*%
%TO.N,Net-(D59-A)*%
X247000000Y-46600000D03*
%TD*%
D12*
%TO.P,D13,1,K_1*%
%TO.N,/Row2*%
X299400000Y-75410000D03*
D11*
%TO.P,D13,2,A_2*%
%TO.N,Net-(D13-A)*%
X299400000Y-67790000D03*
%TD*%
D12*
%TO.P,D31,1,K_1*%
%TO.N,/Row4*%
X128800000Y-119820000D03*
D11*
%TO.P,D31,2,A_2*%
%TO.N,Net-(D31-A)*%
X128800000Y-112200000D03*
%TD*%
D13*
%TO.P,SW6,1,1_1*%
%TO.N,/Col6*%
X130150000Y-70140000D03*
%TO.P,SW6,2,2_2*%
%TO.N,Net-(D6-A)*%
X136500000Y-67600000D03*
%TD*%
%TO.P,SW51,1,1_1*%
%TO.N,/Col12*%
X266110000Y-134600000D03*
%TO.P,SW51,2,2_2*%
%TO.N,Net-(D51-A)*%
X272460000Y-132060000D03*
%TD*%
%TO.P,SW57,1,1_1*%
%TO.N,/Col9*%
X197190000Y-49060000D03*
%TO.P,SW57,2,2_2*%
%TO.N,Net-(D57-A)*%
X203540000Y-46520000D03*
%TD*%
%TO.P,SW60,1,1_1*%
%TO.N,/Col12*%
X262270000Y-49060000D03*
%TO.P,SW60,2,2_2*%
%TO.N,Net-(D60-A)*%
X268620000Y-46520000D03*
%TD*%
%TO.P,SW29,1,1_1*%
%TO.N,/Col3*%
X70270000Y-113060000D03*
%TO.P,SW29,2,2_2*%
%TO.N,Net-(D29-A)*%
X76620000Y-110520000D03*
%TD*%
D12*
%TO.P,D41,1,K_1*%
%TO.N,/Row5*%
X71000000Y-140610000D03*
D11*
%TO.P,D41,2,A_2*%
%TO.N,Net-(D41-A)*%
X71000000Y-132990000D03*
%TD*%
D13*
%TO.P,SW20,1,1_1*%
%TO.N,/Col7*%
X146450000Y-90940000D03*
%TO.P,SW20,2,2_2*%
%TO.N,Net-(D20-A)*%
X152800000Y-88400000D03*
%TD*%
%TO.P,SW9,1,1_1*%
%TO.N,/Col9*%
X194270000Y-70060000D03*
%TO.P,SW9,2,2_2*%
%TO.N,Net-(D9-A)*%
X200620000Y-67520000D03*
%TD*%
D12*
%TO.P,D50,1,K_1*%
%TO.N,/Row5*%
X259000000Y-140410000D03*
D11*
%TO.P,D50,2,A_2*%
%TO.N,Net-(D50-A)*%
X259000000Y-132790000D03*
%TD*%
D12*
%TO.P,D51,1,K_1*%
%TO.N,/Row5*%
X281800000Y-141410000D03*
D11*
%TO.P,D51,2,A_2*%
%TO.N,Net-(D51-A)*%
X281800000Y-133790000D03*
%TD*%
D13*
%TO.P,SW19,1,1_1*%
%TO.N,/Col6*%
X124450000Y-90940000D03*
%TO.P,SW19,2,2_2*%
%TO.N,Net-(D19-A)*%
X130800000Y-88400000D03*
%TD*%
%TO.P,SW17,1,1_1*%
%TO.N,/Col4*%
X81200000Y-91000000D03*
%TO.P,SW17,2,2_2*%
%TO.N,Net-(D17-A)*%
X87550000Y-88460000D03*
%TD*%
%TO.P,SW37,1,1_1*%
%TO.N,/Col11*%
X241370000Y-113060000D03*
%TO.P,SW37,2,2_2*%
%TO.N,Net-(D37-A)*%
X247720000Y-110520000D03*
%TD*%
D12*
%TO.P,D24,1,K_1*%
%TO.N,/Row3*%
X247600000Y-97410000D03*
D11*
%TO.P,D24,2,A_2*%
%TO.N,Net-(D24-A)*%
X247600000Y-89790000D03*
%TD*%
D14*
%TO.P,S1,*%
%TO.N,*%
X103500000Y-130100000D03*
X203512500Y-130100000D03*
%TD*%
D13*
%TO.P,SW27,1,1_1*%
%TO.N,/Col1*%
X41380000Y-113020000D03*
%TO.P,SW27,2,2_2*%
%TO.N,Net-(D27-A)*%
X47730000Y-110480000D03*
%TD*%
%TO.P,SW22,1,1_1*%
%TO.N,/Col9*%
X190140000Y-90900000D03*
%TO.P,SW22,2,2_2*%
%TO.N,Net-(D22-A)*%
X196490000Y-88360000D03*
%TD*%
D15*
%TO.P,SW45,1,1_1*%
%TO.N,/Col6*%
X150000000Y-134600000D03*
%TO.P,SW45,2,2_2*%
%TO.N,Net-(D45-A)*%
X156350000Y-132060000D03*
%TD*%
D13*
%TO.P,SW36,1,1_1*%
%TO.N,/Col10*%
X220370000Y-113060000D03*
%TO.P,SW36,2,2_2*%
%TO.N,Net-(D36-A)*%
X226720000Y-110520000D03*
%TD*%
D12*
%TO.P,D37,1,K_1*%
%TO.N,/Row4*%
X255400000Y-118600000D03*
D11*
%TO.P,D37,2,A_2*%
%TO.N,Net-(D37-A)*%
X255400000Y-110980000D03*
%TD*%
D13*
%TO.P,SW34,1,1_1*%
%TO.N,/Col8*%
X178100000Y-113100000D03*
%TO.P,SW34,2,2_2*%
%TO.N,Net-(D34-A)*%
X184450000Y-110560000D03*
%TD*%
D12*
%TO.P,D14,1,K_1*%
%TO.N,/Row3*%
X53600000Y-97610000D03*
D11*
%TO.P,D14,2,A_2*%
%TO.N,Net-(D14-A)*%
X53600000Y-89990000D03*
%TD*%
D13*
%TO.P,SW62,1,1_1*%
%TO.N,/BAT1*%
X309710000Y-49060000D03*
%TO.P,SW62,2,2_2*%
%TO.N,Net-(A2-VSYS)*%
X316060000Y-46520000D03*
%TD*%
%TO.P,SW12,1,1_1*%
%TO.N,/Col12*%
X257960000Y-70140000D03*
%TO.P,SW12,2,2_2*%
%TO.N,Net-(D12-A)*%
X264310000Y-67600000D03*
%TD*%
D12*
%TO.P,D59,1,K_1*%
%TO.N,/Row1*%
X255200000Y-55200000D03*
D11*
%TO.P,D59,2,A_2*%
%TO.N,Net-(D59-A)*%
X255200000Y-47580000D03*
%TD*%
D12*
%TO.P,D16,1,K_1*%
%TO.N,/Row3*%
X74600000Y-97810000D03*
D11*
%TO.P,D16,2,A_2*%
%TO.N,Net-(D16-A)*%
X74600000Y-90190000D03*
%TD*%
D12*
%TO.P,D26,1,K_1*%
%TO.N,/Row3*%
X298800000Y-97820000D03*
D11*
%TO.P,D26,2,A_2*%
%TO.N,Net-(D26-A)*%
X298800000Y-90200000D03*
%TD*%
D13*
%TO.P,SW30,1,1_1*%
%TO.N,/Col4*%
X92190000Y-113060000D03*
%TO.P,SW30,2,2_2*%
%TO.N,Net-(D30-A)*%
X98540000Y-110520000D03*
%TD*%
%TO.P,SW56,1,1_1*%
%TO.N,/Col8*%
X176000000Y-49100000D03*
%TO.P,SW56,2,2_2*%
%TO.N,Net-(D56-A)*%
X182350000Y-46560000D03*
%TD*%
D12*
%TO.P,D34,1,K_1*%
%TO.N,/Row4*%
X192800000Y-118800000D03*
D11*
%TO.P,D34,2,A_2*%
%TO.N,Net-(D34-A)*%
X192800000Y-111180000D03*
%TD*%
D13*
%TO.P,SW10,1,1_1*%
%TO.N,/Col10*%
X215610000Y-70140000D03*
%TO.P,SW10,2,2_2*%
%TO.N,Net-(D10-A)*%
X221960000Y-67600000D03*
%TD*%
D12*
%TO.P,D6,1,K_1*%
%TO.N,/Row2*%
X144600000Y-76810000D03*
D11*
%TO.P,D6,2,A_2*%
%TO.N,Net-(D6-A)*%
X144600000Y-69190000D03*
%TD*%
D12*
%TO.P,D46,1,K_1*%
%TO.N,/Row1*%
X84000000Y-55000000D03*
D11*
%TO.P,D46,2,A_2*%
%TO.N,Net-(D46-A)*%
X84000000Y-47380000D03*
%TD*%
D12*
%TO.P,D27,1,K_1*%
%TO.N,/Row4*%
X63000000Y-118410000D03*
D11*
%TO.P,D27,2,A_2*%
%TO.N,Net-(D27-A)*%
X63000000Y-110790000D03*
%TD*%
D13*
%TO.P,SW61,1,1_1*%
%TO.N,/Col13*%
X286150000Y-49140000D03*
%TO.P,SW61,2,2_2*%
%TO.N,Net-(D61-A)*%
X292500000Y-46600000D03*
%TD*%
%TO.P,SW13,1,1_1*%
%TO.N,/Col13*%
X283960000Y-70100000D03*
%TO.P,SW13,2,2_2*%
%TO.N,Net-(D13-A)*%
X290310000Y-67560000D03*
%TD*%
%TO.P,SW5,1,1_1*%
%TO.N,/Col5*%
X108270000Y-70060000D03*
%TO.P,SW5,2,2_2*%
%TO.N,Net-(D5-A)*%
X114620000Y-67520000D03*
%TD*%
D12*
%TO.P,D58,1,K_1*%
%TO.N,/Row1*%
X233600000Y-54800000D03*
D11*
%TO.P,D58,2,A_2*%
%TO.N,Net-(D58-A)*%
X233600000Y-47180000D03*
%TD*%
D12*
%TO.P,D3,1,K_1*%
%TO.N,/Row2*%
X79600000Y-75600000D03*
D11*
%TO.P,D3,2,A_2*%
%TO.N,Net-(D3-A)*%
X79600000Y-67980000D03*
%TD*%
D13*
%TO.P,SW46,1,1_1*%
%TO.N,/Col3*%
X69500000Y-49100000D03*
%TO.P,SW46,2,2_2*%
%TO.N,Net-(D46-A)*%
X75850000Y-46560000D03*
%TD*%
D12*
%TO.P,D19,1,K_1*%
%TO.N,/Row3*%
X139400000Y-95600000D03*
D11*
%TO.P,D19,2,A_2*%
%TO.N,Net-(D19-A)*%
X139400000Y-87980000D03*
%TD*%
D13*
%TO.P,SW3,1,1_1*%
%TO.N,/Col3*%
X65000000Y-70100000D03*
%TO.P,SW3,2,2_2*%
%TO.N,Net-(D3-A)*%
X71350000Y-67560000D03*
%TD*%
D12*
%TO.P,D53,1,K_1*%
%TO.N,/Row1*%
X126500000Y-55200000D03*
D11*
%TO.P,D53,2,A_2*%
%TO.N,Net-(D53-A)*%
X126500000Y-47580000D03*
%TD*%
D13*
%TO.P,SW39,1,1_1*%
%TO.N,/Col13*%
X286150000Y-113100000D03*
%TO.P,SW39,2,2_2*%
%TO.N,Net-(D39-A)*%
X292500000Y-110560000D03*
%TD*%
D12*
%TO.P,D45,1,K_1*%
%TO.N,/Row5*%
X214600000Y-141820000D03*
D11*
%TO.P,D45,2,A_2*%
%TO.N,Net-(D45-A)*%
X214600000Y-134200000D03*
%TD*%
D13*
%TO.P,SW28,1,1_1*%
%TO.N,/Col12*%
X262370000Y-113060000D03*
%TO.P,SW28,2,2_2*%
%TO.N,Net-(D28-A)*%
X268720000Y-110520000D03*
%TD*%
%TO.P,SW35,1,1_1*%
%TO.N,/Col9*%
X199250000Y-113140000D03*
%TO.P,SW35,2,2_2*%
%TO.N,Net-(D35-A)*%
X205600000Y-110600000D03*
%TD*%
D12*
%TO.P,D39,1,K_1*%
%TO.N,/Row4*%
X300000000Y-120220000D03*
D11*
%TO.P,D39,2,A_2*%
%TO.N,Net-(D39-A)*%
X300000000Y-112600000D03*
%TD*%
D13*
%TO.P,SW25,1,1_1*%
%TO.N,/Col12*%
X253400000Y-90940000D03*
%TO.P,SW25,2,2_2*%
%TO.N,Net-(D25-A)*%
X259750000Y-88400000D03*
%TD*%
%TO.P,SW41,1,1_1*%
%TO.N,/Col2*%
X56000000Y-134600000D03*
%TO.P,SW41,2,2_2*%
%TO.N,Net-(D41-A)*%
X62350000Y-132060000D03*
%TD*%
%TO.P,SW21,1,1_1*%
%TO.N,/Col8*%
X168450000Y-90980000D03*
%TO.P,SW21,2,2_2*%
%TO.N,Net-(D21-A)*%
X174800000Y-88440000D03*
%TD*%
%TO.P,SW8,1,1_1*%
%TO.N,/Col8*%
X172770000Y-70060000D03*
%TO.P,SW8,2,2_2*%
%TO.N,Net-(D8-A)*%
X179120000Y-67520000D03*
%TD*%
%TO.P,SW50,1,1_1*%
%TO.N,/Col11*%
X243690000Y-134560000D03*
%TO.P,SW50,2,2_2*%
%TO.N,Net-(D50-A)*%
X250040000Y-132020000D03*
%TD*%
D12*
%TO.P,D11,1,K_1*%
%TO.N,/Row2*%
X251400000Y-77010000D03*
D11*
%TO.P,D11,2,A_2*%
%TO.N,Net-(D11-A)*%
X251400000Y-69390000D03*
%TD*%
D12*
%TO.P,D38,1,K_1*%
%TO.N,/Row1*%
X57200000Y-55010000D03*
D11*
%TO.P,D38,2,A_2*%
%TO.N,Net-(D38-A)*%
X57200000Y-47390000D03*
%TD*%
D13*
%TO.P,SW11,1,1_1*%
%TO.N,/Col11*%
X236960000Y-70180000D03*
%TO.P,SW11,2,2_2*%
%TO.N,Net-(D11-A)*%
X243310000Y-67640000D03*
%TD*%
D12*
%TO.P,D33,1,K_1*%
%TO.N,/Row4*%
X171200000Y-119010000D03*
D11*
%TO.P,D33,2,A_2*%
%TO.N,Net-(D33-A)*%
X171200000Y-111390000D03*
%TD*%
D13*
%TO.P,SW26,1,1_1*%
%TO.N,/Col13*%
X281600000Y-91000000D03*
%TO.P,SW26,2,2_2*%
%TO.N,Net-(D26-A)*%
X287950000Y-88460000D03*
%TD*%
%TO.P,SW4,1,1_1*%
%TO.N,/Col4*%
X86770000Y-70060000D03*
%TO.P,SW4,2,2_2*%
%TO.N,Net-(D4-A)*%
X93120000Y-67520000D03*
%TD*%
%TO.P,SW32,1,1_1*%
%TO.N,/Col6*%
X135670000Y-113060000D03*
%TO.P,SW32,2,2_2*%
%TO.N,Net-(D32-A)*%
X142020000Y-110520000D03*
%TD*%
D16*
%TO.P,J1,SH,SHIELD_SH*%
%TO.N,unconnected-(J1-SHIELD-PadSH)*%
X362720000Y-46905000D03*
D17*
X362720000Y-42725000D03*
D16*
X354080000Y-46905000D03*
D17*
X354080000Y-42725000D03*
%TD*%
D13*
%TO.P,SW53,1,1_1*%
%TO.N,/Col5*%
X112000000Y-49100000D03*
%TO.P,SW53,2,2_2*%
%TO.N,Net-(D53-A)*%
X118350000Y-46560000D03*
%TD*%
D12*
%TO.P,D21,1,K_1*%
%TO.N,/Row3*%
X183400000Y-96420000D03*
D11*
%TO.P,D21,2,A_2*%
%TO.N,Net-(D21-A)*%
X183400000Y-88800000D03*
%TD*%
D12*
%TO.P,D20,1,K_1*%
%TO.N,/Row3*%
X161200000Y-97600000D03*
D11*
%TO.P,D20,2,A_2*%
%TO.N,Net-(D20-A)*%
X161200000Y-89980000D03*
%TD*%
D12*
%TO.P,D47,1,K_1*%
%TO.N,/Row1*%
X105200000Y-55610000D03*
D11*
%TO.P,D47,2,A_2*%
%TO.N,Net-(D47-A)*%
X105200000Y-47990000D03*
%TD*%
D13*
%TO.P,SW1,1,1_1*%
%TO.N,/Col1*%
X39110000Y-70060000D03*
%TO.P,SW1,2,2_2*%
%TO.N,Net-(D1-A)*%
X45460000Y-67520000D03*
%TD*%
%TO.P,SW58,1,1_1*%
%TO.N,/Col10*%
X219110000Y-49060000D03*
%TO.P,SW58,2,2_2*%
%TO.N,Net-(D58-A)*%
X225460000Y-46520000D03*
%TD*%
%TO.P,SW33,1,1_1*%
%TO.N,/Col7*%
X156870000Y-113060000D03*
%TO.P,SW33,2,2_2*%
%TO.N,Net-(D33-A)*%
X163220000Y-110520000D03*
%TD*%
D12*
%TO.P,D61,1,K_1*%
%TO.N,/Row1*%
X300200000Y-54600000D03*
D11*
%TO.P,D61,2,A_2*%
%TO.N,Net-(D61-A)*%
X300200000Y-46980000D03*
%TD*%
D12*
%TO.P,D35,1,K_1*%
%TO.N,/Row4*%
X213800000Y-119610000D03*
D11*
%TO.P,D35,2,A_2*%
%TO.N,Net-(D35-A)*%
X213800000Y-111990000D03*
%TD*%
D13*
%TO.P,SW24,1,1_1*%
%TO.N,/Col11*%
X232600000Y-91000000D03*
%TO.P,SW24,2,2_2*%
%TO.N,Net-(D24-A)*%
X238950000Y-88460000D03*
%TD*%
D12*
%TO.P,D7,1,K_1*%
%TO.N,/Row2*%
X165400000Y-76610000D03*
D11*
%TO.P,D7,2,A_2*%
%TO.N,Net-(D7-A)*%
X165400000Y-68990000D03*
%TD*%
D12*
%TO.P,D10,1,K_1*%
%TO.N,/Row2*%
X229800000Y-75810000D03*
D11*
%TO.P,D10,2,A_2*%
%TO.N,Net-(D10-A)*%
X229800000Y-68190000D03*
%TD*%
D12*
%TO.P,D54,1,K_1*%
%TO.N,/Row1*%
X148200000Y-55210000D03*
D11*
%TO.P,D54,2,A_2*%
%TO.N,Net-(D54-A)*%
X148200000Y-47590000D03*
%TD*%
D12*
%TO.P,D25,1,K_1*%
%TO.N,/Row3*%
X268200000Y-97820000D03*
D11*
%TO.P,D25,2,A_2*%
%TO.N,Net-(D25-A)*%
X268200000Y-90200000D03*
%TD*%
D13*
%TO.P,SW42,1,1_1*%
%TO.N,/Col3*%
X78000000Y-134600000D03*
%TO.P,SW42,2,2_2*%
%TO.N,Net-(D42-A)*%
X84350000Y-132060000D03*
%TD*%
D12*
%TO.P,D28,1,K_1*%
%TO.N,/Row4*%
X276800000Y-119620000D03*
D11*
%TO.P,D28,2,A_2*%
%TO.N,Net-(D28-A)*%
X276800000Y-112000000D03*
%TD*%
D12*
%TO.P,D22,1,K_1*%
%TO.N,/Row3*%
X204600000Y-96410000D03*
D11*
%TO.P,D22,2,A_2*%
%TO.N,Net-(D22-A)*%
X204600000Y-88790000D03*
%TD*%
D12*
%TO.P,D32,1,K_1*%
%TO.N,/Row4*%
X149800000Y-119620000D03*
D11*
%TO.P,D32,2,A_2*%
%TO.N,Net-(D32-A)*%
X149800000Y-112000000D03*
%TD*%
D12*
%TO.P,D1,1,K_1*%
%TO.N,/Row2*%
X58200000Y-76420000D03*
D11*
%TO.P,D1,2,A_2*%
%TO.N,Net-(D1-A)*%
X58200000Y-68800000D03*
%TD*%
D12*
%TO.P,D56,1,K_1*%
%TO.N,/Row1*%
X189800000Y-54810000D03*
D11*
%TO.P,D56,2,A_2*%
%TO.N,Net-(D56-A)*%
X189800000Y-47190000D03*
%TD*%
D13*
%TO.P,SW55,1,1_1*%
%TO.N,/Col7*%
X154770000Y-49060000D03*
%TO.P,SW55,2,2_2*%
%TO.N,Net-(D55-A)*%
X161120000Y-46520000D03*
%TD*%
D12*
%TO.P,D12,1,K_1*%
%TO.N,/Row2*%
X272400000Y-76410000D03*
D11*
%TO.P,D12,2,A_2*%
%TO.N,Net-(D12-A)*%
X272400000Y-68790000D03*
%TD*%
D13*
%TO.P,SW40,1,1_1*%
%TO.N,/Col1*%
X34110000Y-134560000D03*
%TO.P,SW40,2,2_2*%
%TO.N,Net-(D40-A)*%
X40460000Y-132020000D03*
%TD*%
%TO.P,SW38,1,1_1*%
%TO.N,/Col1*%
X41260000Y-49100000D03*
%TO.P,SW38,2,2_2*%
%TO.N,Net-(D38-A)*%
X47610000Y-46560000D03*
%TD*%
D12*
%TO.P,D57,1,K_1*%
%TO.N,/Row1*%
X212000000Y-54400000D03*
D11*
%TO.P,D57,2,A_2*%
%TO.N,Net-(D57-A)*%
X212000000Y-46780000D03*
%TD*%
D12*
%TO.P,D42,1,K_1*%
%TO.N,/Row5*%
X92800000Y-140410000D03*
D11*
%TO.P,D42,2,A_2*%
%TO.N,Net-(D42-A)*%
X92800000Y-132790000D03*
%TD*%
D12*
%TO.P,D17,1,K_1*%
%TO.N,/Row3*%
X95800000Y-98410000D03*
D11*
%TO.P,D17,2,A_2*%
%TO.N,Net-(D17-A)*%
X95800000Y-90790000D03*
%TD*%
D12*
%TO.P,D60,1,K_1*%
%TO.N,/Row1*%
X276800000Y-53800000D03*
D11*
%TO.P,D60,2,A_2*%
%TO.N,Net-(D60-A)*%
X276800000Y-46180000D03*
%TD*%
D12*
%TO.P,D18,1,K_1*%
%TO.N,/Row3*%
X118200000Y-96390000D03*
D11*
%TO.P,D18,2,A_2*%
%TO.N,Net-(D18-A)*%
X118200000Y-88770000D03*
%TD*%
D12*
%TO.P,D5,1,K_1*%
%TO.N,/Row2*%
X122800000Y-76200000D03*
D11*
%TO.P,D5,2,A_2*%
%TO.N,Net-(D5-A)*%
X122800000Y-68580000D03*
%TD*%
D12*
%TO.P,D36,1,K_1*%
%TO.N,/Row4*%
X234000000Y-120200000D03*
D11*
%TO.P,D36,2,A_2*%
%TO.N,Net-(D36-A)*%
X234000000Y-112580000D03*
%TD*%
D13*
%TO.P,SW31,1,1_1*%
%TO.N,/Col5*%
X114070000Y-113060000D03*
%TO.P,SW31,2,2_2*%
%TO.N,Net-(D31-A)*%
X120420000Y-110520000D03*
%TD*%
%TO.P,SW49,1,1_1*%
%TO.N,/Col10*%
X221610000Y-134560000D03*
%TO.P,SW49,2,2_2*%
%TO.N,Net-(D49-A)*%
X227960000Y-132020000D03*
%TD*%
D12*
%TO.P,D40,1,K_1*%
%TO.N,/Row5*%
X48600000Y-140210000D03*
D11*
%TO.P,D40,2,A_2*%
%TO.N,Net-(D40-A)*%
X48600000Y-132590000D03*
%TD*%
D12*
%TO.P,D30,1,K_1*%
%TO.N,/Row4*%
X106600000Y-119820000D03*
D11*
%TO.P,D30,2,A_2*%
%TO.N,Net-(D30-A)*%
X106600000Y-112200000D03*
%TD*%
D12*
%TO.P,D9,1,K_1*%
%TO.N,/Row2*%
X209400000Y-75800000D03*
D11*
%TO.P,D9,2,A_2*%
%TO.N,Net-(D9-A)*%
X209400000Y-68180000D03*
%TD*%
D12*
%TO.P,D55,1,K_1*%
%TO.N,/Row1*%
X169600000Y-55200000D03*
D11*
%TO.P,D55,2,A_2*%
%TO.N,Net-(D55-A)*%
X169600000Y-47580000D03*
%TD*%
D13*
%TO.P,SW54,1,1_1*%
%TO.N,/Col6*%
X133500000Y-49100000D03*
%TO.P,SW54,2,2_2*%
%TO.N,Net-(D54-A)*%
X139850000Y-46560000D03*
%TD*%
%TO.P,SW7,1,1_1*%
%TO.N,/Col7*%
X151690000Y-70100000D03*
%TO.P,SW7,2,2_2*%
%TO.N,Net-(D7-A)*%
X158040000Y-67560000D03*
%TD*%
D12*
%TO.P,D29,1,K_1*%
%TO.N,/Row4*%
X85200000Y-119210000D03*
D11*
%TO.P,D29,2,A_2*%
%TO.N,Net-(D29-A)*%
X85200000Y-111590000D03*
%TD*%
D12*
%TO.P,D8,1,K_1*%
%TO.N,/Row2*%
X187400000Y-76010000D03*
D11*
%TO.P,D8,2,A_2*%
%TO.N,Net-(D8-A)*%
X187400000Y-68390000D03*
%TD*%
D13*
%TO.P,SW18,1,1_1*%
%TO.N,/Col5*%
X102600000Y-91000000D03*
%TO.P,SW18,2,2_2*%
%TO.N,Net-(D18-A)*%
X108950000Y-88460000D03*
%TD*%
%TO.P,SW52,1,1_1*%
%TO.N,/Col13*%
X288610000Y-134640000D03*
%TO.P,SW52,2,2_2*%
%TO.N,Net-(D52-A)*%
X294960000Y-132100000D03*
%TD*%
D18*
%TO.N,/Row2*%
X303400000Y-56200000D03*
X311200000Y-56200000D03*
%TO.N,GND*%
X325800000Y-109600000D03*
%TO.N,/Row3*%
X311200000Y-59000000D03*
%TO.N,/Row4*%
X310400000Y-105800000D03*
X314400000Y-102800000D03*
X316400000Y-97600000D03*
X327400000Y-58200000D03*
%TO.N,/Row5*%
X310600000Y-60400000D03*
X307000000Y-120200000D03*
%TO.N,/Col2*%
X307400000Y-64400000D03*
X50200000Y-41800000D03*
X327800000Y-64400000D03*
X304200000Y-63200000D03*
%TO.N,/Col3*%
X304600000Y-138400000D03*
X310800000Y-101600000D03*
X308000000Y-142000000D03*
X314600000Y-78200000D03*
%TO.N,/Col4*%
X314600000Y-80000000D03*
X308000000Y-96600000D03*
X302800000Y-99000000D03*
X87400000Y-109400000D03*
X310400000Y-80600000D03*
X312000000Y-82400000D03*
%TO.N,/Col5*%
X301000000Y-100000000D03*
X307400000Y-72000000D03*
X319000000Y-77400000D03*
%TO.N,/Col6*%
X267800000Y-119200000D03*
X207000000Y-126400000D03*
X308000000Y-77400000D03*
X153800000Y-131600000D03*
X286600000Y-101600000D03*
X296800000Y-100600000D03*
X285400000Y-110200000D03*
X314400000Y-83800000D03*
%TO.N,/Col7*%
X327400000Y-80200000D03*
%TO.N,/Col8*%
X309400000Y-106600000D03*
X169600000Y-98320000D03*
X174000000Y-108200000D03*
X315400000Y-85800000D03*
X298800000Y-106600000D03*
%TO.N,/Col9*%
X298000000Y-108200000D03*
X190800000Y-97600000D03*
X194600000Y-108000000D03*
X309000000Y-107600000D03*
X317400000Y-104000000D03*
%TO.N,/Col10*%
X220000000Y-109800000D03*
X325200000Y-90400000D03*
X297241051Y-107800000D03*
X308000000Y-108600000D03*
X215400000Y-97200000D03*
%TO.N,/Col11*%
X322800000Y-93000000D03*
X306200000Y-101800000D03*
X308800000Y-104200000D03*
X233600000Y-98000000D03*
%TO.N,/Col12*%
X253800000Y-98200000D03*
X308800000Y-108400000D03*
X314678387Y-108757640D03*
X312845000Y-108400000D03*
X263400000Y-117000000D03*
X318800000Y-105200000D03*
X301800000Y-108200000D03*
%TO.N,/Col13*%
X287400000Y-117400000D03*
X362400000Y-91000000D03*
X287600000Y-97600000D03*
%TO.N,Net-(A2-GPIO26_ADC0)*%
X354400000Y-67400000D03*
X330800000Y-122400000D03*
%TO.N,Net-(A2-VSYS)*%
X347400000Y-48400000D03*
%TO.N,Net-(J1-CC1)*%
X364400000Y-87000000D03*
X313200000Y-141400000D03*
%TO.N,Net-(J1-CC2)*%
X310600000Y-135400000D03*
X321200000Y-141200000D03*
%TO.N,Net-(U1-V_{DD})*%
X345000000Y-111600000D03*
X329200000Y-116200000D03*
%TO.N,Net-(U1-PROG)*%
X330800000Y-117200000D03*
X321600000Y-119400000D03*
%TD*%
%TO.N,/Row2*%
D19*
X303400000Y-56200000D02*
X311200000Y-56200000D01*
%TO.N,/Row3*%
X305600000Y-61000000D02*
X305600000Y-91020000D01*
X311200000Y-59000000D02*
X307600000Y-59000000D01*
X307600000Y-59000000D02*
X305600000Y-61000000D01*
X305600000Y-91020000D02*
X298800000Y-97820000D01*
%TO.N,/Row4*%
X328800000Y-59600000D02*
X328800000Y-87648529D01*
X316400000Y-91800000D02*
X316400000Y-97600000D01*
X314400000Y-102800000D02*
X311400000Y-105800000D01*
X311400000Y-105800000D02*
X310400000Y-105800000D01*
X327400000Y-58200000D02*
X328800000Y-59600000D01*
X324648529Y-91800000D02*
X316400000Y-91800000D01*
X328800000Y-87648529D02*
X324648529Y-91800000D01*
%TO.N,/Row5*%
X307000000Y-101600000D02*
X307000000Y-120200000D01*
X306600000Y-97200000D02*
X309000000Y-99600000D01*
X310600000Y-60400000D02*
X307800000Y-60400000D01*
X306600000Y-61600000D02*
X306600000Y-97200000D01*
X307800000Y-60400000D02*
X306600000Y-61600000D01*
X309000000Y-99600000D02*
X307000000Y-101600000D01*
%TO.N,/Col2*%
X304200000Y-62600000D02*
X304200000Y-63200000D01*
X50200000Y-41800000D02*
X283400000Y-41800000D01*
X327800000Y-64400000D02*
X307400000Y-64400000D01*
X283400000Y-41800000D02*
X304200000Y-62600000D01*
%TO.N,/Col3*%
X308000000Y-141800000D02*
X308000000Y-142000000D01*
X314600000Y-78200000D02*
X310800000Y-82000000D01*
X304600000Y-138400000D02*
X308000000Y-141800000D01*
X310800000Y-82000000D02*
X310800000Y-101600000D01*
%TO.N,/Col4*%
X302720000Y-98920000D02*
X106330000Y-98920000D01*
X90770000Y-66060000D02*
X86770000Y-70060000D01*
X106330000Y-98920000D02*
X92190000Y-113060000D01*
X81200000Y-91000000D02*
X81200000Y-102070000D01*
X86770000Y-85430000D02*
X81200000Y-91000000D01*
X90770000Y-49060000D02*
X90770000Y-66060000D01*
X310400000Y-80600000D02*
X308000000Y-83000000D01*
X87400000Y-108270000D02*
X87400000Y-109400000D01*
X302800000Y-99000000D02*
X302720000Y-98920000D01*
X314400000Y-80000000D02*
X312000000Y-82400000D01*
X86770000Y-70060000D02*
X86770000Y-85430000D01*
X314600000Y-80000000D02*
X314400000Y-80000000D01*
X308000000Y-83000000D02*
X308000000Y-96600000D01*
X81200000Y-102070000D02*
X87400000Y-108270000D01*
%TO.N,/Col5*%
X299184744Y-99320000D02*
X127810000Y-99320000D01*
X299864744Y-100000000D02*
X299184744Y-99320000D01*
X107807588Y-70060000D02*
X108270000Y-70060000D01*
X114070000Y-113060000D02*
X109200000Y-108190000D01*
X109200000Y-108190000D02*
X97909390Y-108190000D01*
X102600000Y-91000000D02*
X102600000Y-75267588D01*
X102600000Y-75267588D02*
X107807588Y-70060000D01*
X93640000Y-112459390D02*
X93640000Y-113660610D01*
X90740000Y-113660610D02*
X90740000Y-105862412D01*
X92790610Y-114510000D02*
X91589390Y-114510000D01*
X301000000Y-100000000D02*
X299864744Y-100000000D01*
X97909390Y-108190000D02*
X93640000Y-112459390D01*
X313000000Y-72000000D02*
X307400000Y-72000000D01*
X127810000Y-99320000D02*
X114070000Y-113060000D01*
X90740000Y-105862412D02*
X102600000Y-94002412D01*
X319000000Y-77400000D02*
X318400000Y-77400000D01*
X102600000Y-94002412D02*
X102600000Y-91000000D01*
X93640000Y-113660610D02*
X92790610Y-114510000D01*
X112000000Y-66330000D02*
X112000000Y-49100000D01*
X108270000Y-70060000D02*
X112000000Y-66330000D01*
X318400000Y-77400000D02*
X313000000Y-72000000D01*
X91589390Y-114510000D02*
X90740000Y-113660610D01*
%TO.N,/Col6*%
X91531488Y-117943900D02*
X129159755Y-117943900D01*
X130150000Y-85240000D02*
X124450000Y-90940000D01*
X276344365Y-113100000D02*
X282500000Y-113100000D01*
X314400000Y-82000000D02*
X317800000Y-78600000D01*
X89695000Y-116107412D02*
X91531488Y-117943900D01*
X317800000Y-78600000D02*
X313600000Y-74400000D01*
X270244365Y-119200000D02*
X276344365Y-113100000D01*
X159000000Y-126400000D02*
X207000000Y-126400000D01*
X111399390Y-47650000D02*
X109505000Y-49544390D01*
X129159755Y-117943900D02*
X134043655Y-113060000D01*
X89695000Y-102630256D02*
X89695000Y-116107412D01*
X295800000Y-101600000D02*
X296800000Y-100600000D01*
X109720000Y-76210000D02*
X109720000Y-69459390D01*
X130150000Y-70140000D02*
X130150000Y-85240000D01*
X135670000Y-113060000D02*
X135670000Y-125670000D01*
X113450000Y-65729390D02*
X113450000Y-48499390D01*
X109505000Y-53582588D02*
X96900000Y-66187588D01*
X282500000Y-113100000D02*
X285400000Y-110200000D01*
X113450000Y-48499390D02*
X112600610Y-47650000D01*
X267800000Y-119200000D02*
X270244365Y-119200000D01*
X308800000Y-74400000D02*
X308000000Y-75200000D01*
X133500000Y-49100000D02*
X133500000Y-66790000D01*
X112600610Y-47650000D02*
X111399390Y-47650000D01*
X286600000Y-101600000D02*
X295800000Y-101600000D01*
X109505000Y-49544390D02*
X109505000Y-53582588D01*
X124450000Y-90940000D02*
X109720000Y-76210000D01*
X144600000Y-134600000D02*
X150000000Y-134600000D01*
X308000000Y-75200000D02*
X308000000Y-77400000D01*
X109720000Y-69459390D02*
X113450000Y-65729390D01*
X134043655Y-113060000D02*
X135670000Y-113060000D01*
X314400000Y-83800000D02*
X314400000Y-82000000D01*
X135670000Y-125670000D02*
X144600000Y-134600000D01*
X313600000Y-74400000D02*
X308800000Y-74400000D01*
X96900000Y-95425256D02*
X89695000Y-102630256D01*
X133500000Y-66790000D02*
X130150000Y-70140000D01*
X153800000Y-131600000D02*
X159000000Y-126400000D01*
X96900000Y-66187588D02*
X96900000Y-95425256D01*
%TO.N,/Col7*%
X296448529Y-106200000D02*
X163730000Y-106200000D01*
X134950000Y-66189390D02*
X134950000Y-48499390D01*
X163730000Y-106200000D02*
X156870000Y-113060000D01*
X94435000Y-72092588D02*
X94435000Y-97324571D01*
X112766295Y-47250000D02*
X111233704Y-47250000D01*
X131253290Y-49296100D02*
X114812395Y-49296100D01*
X327400000Y-80200000D02*
X328400000Y-79200000D01*
X306000000Y-96648529D02*
X296448529Y-106200000D01*
X89295000Y-116273098D02*
X98857588Y-125835686D01*
X89295000Y-102464571D02*
X89295000Y-116273098D01*
X114812395Y-49296100D02*
X112766295Y-47250000D01*
X151690000Y-70100000D02*
X151690000Y-85700000D01*
X131600000Y-69539390D02*
X134950000Y-66189390D01*
X152804365Y-113060000D02*
X156870000Y-113060000D01*
X134100610Y-47650000D02*
X132899390Y-47650000D01*
X95152588Y-63331116D02*
X95152588Y-71375000D01*
X307565686Y-59600000D02*
X306000000Y-61165686D01*
X111233704Y-47250000D02*
X95152588Y-63331116D01*
X146450000Y-90940000D02*
X131600000Y-76090000D01*
X154770000Y-67020000D02*
X151690000Y-70100000D01*
X154770000Y-49060000D02*
X154770000Y-67020000D01*
X95152588Y-71375000D02*
X94435000Y-72092588D01*
X94435000Y-97324571D02*
X89295000Y-102464571D01*
X131600000Y-76090000D02*
X131600000Y-69539390D01*
X151690000Y-85700000D02*
X146450000Y-90940000D01*
X98857588Y-125835686D02*
X135270000Y-125835686D01*
X151550000Y-114314365D02*
X152804365Y-113060000D01*
X328400000Y-79200000D02*
X328400000Y-64151471D01*
X150642032Y-136150000D02*
X151550000Y-135242032D01*
X135270000Y-125835686D02*
X145584314Y-136150000D01*
X151550000Y-135242032D02*
X151550000Y-114314365D01*
X328400000Y-64151471D02*
X323848529Y-59600000D01*
X132899390Y-47650000D02*
X131253290Y-49296100D01*
X323848529Y-59600000D02*
X307565686Y-59600000D01*
X134950000Y-48499390D02*
X134100610Y-47650000D01*
X145584314Y-136150000D02*
X150642032Y-136150000D01*
X306000000Y-61165686D02*
X306000000Y-96648529D01*
%TO.N,/Col8*%
X178100000Y-113100000D02*
X174000000Y-109000000D01*
X172770000Y-86660000D02*
X172770000Y-70060000D01*
X172770000Y-51867588D02*
X175537588Y-49100000D01*
X175537588Y-49100000D02*
X176000000Y-49100000D01*
X312400000Y-106600000D02*
X309400000Y-106600000D01*
X174000000Y-109000000D02*
X174000000Y-108200000D01*
X168450000Y-97170000D02*
X168450000Y-90980000D01*
X172770000Y-70060000D02*
X172770000Y-51867588D01*
X315400000Y-103600000D02*
X312400000Y-106600000D01*
X169600000Y-98320000D02*
X168450000Y-97170000D01*
X184600000Y-106600000D02*
X178100000Y-113100000D01*
X298800000Y-106600000D02*
X184600000Y-106600000D01*
X315400000Y-85800000D02*
X315400000Y-103600000D01*
X168450000Y-90980000D02*
X172770000Y-86660000D01*
%TO.N,/Col9*%
X194600000Y-108490000D02*
X194600000Y-108000000D01*
X297800000Y-108400000D02*
X203990000Y-108400000D01*
X199250000Y-113140000D02*
X194600000Y-108490000D01*
X190800000Y-97600000D02*
X190140000Y-96940000D01*
X194270000Y-86770000D02*
X194270000Y-70060000D01*
X314400000Y-107000000D02*
X314400000Y-107400000D01*
X197190000Y-67140000D02*
X197190000Y-49060000D01*
X317400000Y-104000000D02*
X314400000Y-107000000D01*
X314400000Y-107400000D02*
X309200000Y-107400000D01*
X190140000Y-90900000D02*
X194270000Y-86770000D01*
X194270000Y-70060000D02*
X197190000Y-67140000D01*
X298000000Y-108200000D02*
X297800000Y-108400000D01*
X190140000Y-96940000D02*
X190140000Y-90900000D01*
X309200000Y-107400000D02*
X309000000Y-107600000D01*
X203990000Y-108400000D02*
X199250000Y-113140000D01*
%TO.N,/Col10*%
X218619390Y-134560000D02*
X221610000Y-134560000D01*
X220370000Y-110170000D02*
X220000000Y-109800000D01*
X211600000Y-90980000D02*
X215610000Y-86970000D01*
X315151471Y-85200000D02*
X311400000Y-88951471D01*
X219000000Y-124200000D02*
X220370000Y-122830000D01*
X220370000Y-113060000D02*
X220370000Y-110170000D01*
X194000000Y-107751471D02*
X194000000Y-109940610D01*
X215610000Y-86970000D02*
X215610000Y-70140000D01*
X194000000Y-109940610D02*
X218619390Y-134560000D01*
X325200000Y-90400000D02*
X320000000Y-85200000D01*
X219000000Y-131950000D02*
X219000000Y-124200000D01*
X211600000Y-93400000D02*
X211600000Y-90980000D01*
X255800000Y-107400000D02*
X194351471Y-107400000D01*
X194351471Y-107400000D02*
X194000000Y-107751471D01*
X311400000Y-88951471D02*
X311400000Y-103600000D01*
X219110000Y-66640000D02*
X219110000Y-49060000D01*
X311400000Y-103600000D02*
X308000000Y-107000000D01*
X221610000Y-134560000D02*
X219000000Y-131950000D01*
X215610000Y-70140000D02*
X219110000Y-66640000D01*
X308000000Y-107000000D02*
X308000000Y-108600000D01*
X220370000Y-122830000D02*
X220370000Y-113060000D01*
X320000000Y-85200000D02*
X315151471Y-85200000D01*
X297241051Y-107800000D02*
X256200000Y-107800000D01*
X215400000Y-97200000D02*
X211600000Y-93400000D01*
X256200000Y-107800000D02*
X255800000Y-107400000D01*
%TO.N,/Col11*%
X233600000Y-92000000D02*
X233600000Y-98000000D01*
X272490610Y-108800000D02*
X299200000Y-108800000D01*
X241370000Y-113060000D02*
X241370000Y-132240000D01*
X269320610Y-111970000D02*
X272490610Y-108800000D01*
X243872412Y-134560000D02*
X266462412Y-111970000D01*
X313165685Y-109200000D02*
X307751471Y-109200000D01*
X236960000Y-86640000D02*
X232600000Y-91000000D01*
X307400000Y-105600000D02*
X308800000Y-104200000D01*
X241370000Y-132240000D02*
X243690000Y-134560000D01*
X240650000Y-66490000D02*
X236960000Y-70180000D01*
X232600000Y-91000000D02*
X233600000Y-92000000D01*
X318000000Y-104365685D02*
X313165685Y-109200000D01*
X243690000Y-134560000D02*
X243872412Y-134560000D01*
X299200000Y-108800000D02*
X306200000Y-101800000D01*
X240650000Y-49140000D02*
X240650000Y-66490000D01*
X322800000Y-93000000D02*
X320583578Y-93000000D01*
X266462412Y-111970000D02*
X269320610Y-111970000D01*
X320583578Y-93000000D02*
X318000000Y-95583578D01*
X318000000Y-95583578D02*
X318000000Y-104365685D01*
X236960000Y-70180000D02*
X236960000Y-86640000D01*
X307400000Y-108848529D02*
X307400000Y-105600000D01*
X307751471Y-109200000D02*
X307400000Y-108848529D01*
%TO.N,/Col12*%
X266110000Y-134690000D02*
X266000000Y-134800000D01*
X253400000Y-90940000D02*
X253400000Y-97800000D01*
X301165686Y-107565686D02*
X301165686Y-107400000D01*
X312845000Y-108400000D02*
X308800000Y-108400000D01*
X318800000Y-105200000D02*
X318101860Y-105200000D01*
X253400000Y-97800000D02*
X253800000Y-98200000D01*
X257960000Y-70140000D02*
X257960000Y-86380000D01*
X263400000Y-117000000D02*
X263400000Y-131890000D01*
X262270000Y-65830000D02*
X257960000Y-70140000D01*
X290242412Y-112010000D02*
X296555686Y-112010000D01*
X318101860Y-105200000D02*
X314678387Y-108623473D01*
X257960000Y-86380000D02*
X253400000Y-90940000D01*
X301800000Y-108200000D02*
X301165686Y-107565686D01*
X262270000Y-49060000D02*
X262270000Y-65830000D01*
X266110000Y-134600000D02*
X266110000Y-134690000D01*
X314678387Y-108623473D02*
X314678387Y-108757640D01*
X263400000Y-131890000D02*
X266110000Y-134600000D01*
X296555686Y-112010000D02*
X301165686Y-107400000D01*
X267452412Y-134800000D02*
X290242412Y-112010000D01*
X266000000Y-134800000D02*
X267452412Y-134800000D01*
%TO.N,/Col13*%
X287400000Y-117400000D02*
X287400000Y-133430000D01*
X288610000Y-134640000D02*
X302250000Y-121000000D01*
X286155225Y-97600000D02*
X287600000Y-97600000D01*
X283960000Y-88640000D02*
X281600000Y-91000000D01*
X348600000Y-118200000D02*
X345600000Y-118200000D01*
X345600000Y-118200000D02*
X342800000Y-121000000D01*
X281600000Y-91000000D02*
X281600000Y-93044775D01*
X281600000Y-93044775D02*
X286155225Y-97600000D01*
X286150000Y-67910000D02*
X283960000Y-70100000D01*
X362400000Y-91000000D02*
X362400000Y-104400000D01*
X287400000Y-133430000D02*
X288610000Y-134640000D01*
X302250000Y-121000000D02*
X342800000Y-121000000D01*
X283960000Y-70100000D02*
X283960000Y-88640000D01*
X362400000Y-104400000D02*
X348600000Y-118200000D01*
X286150000Y-49140000D02*
X286150000Y-67910000D01*
%TO.N,Net-(A2-GPIO26_ADC0)*%
X355800000Y-67400000D02*
X354400000Y-67400000D01*
X363000000Y-74600000D02*
X355800000Y-67400000D01*
X363000000Y-118600000D02*
X363000000Y-74600000D01*
X359200000Y-122400000D02*
X363000000Y-118600000D01*
X330800000Y-122400000D02*
X359200000Y-122400000D01*
%TO.N,Net-(A2-VSYS)*%
X347400000Y-48400000D02*
X345520000Y-46520000D01*
X345520000Y-46520000D02*
X316060000Y-46520000D01*
%TO.N,Net-(J1-CC1)*%
X318000000Y-145400000D02*
X317900000Y-145500000D01*
X318000000Y-145400000D02*
X317800000Y-145600000D01*
X338200000Y-125200000D02*
X318000000Y-145400000D01*
X364400000Y-121400000D02*
X360600000Y-125200000D01*
X317800000Y-145600000D02*
X313600000Y-141400000D01*
X360600000Y-125200000D02*
X338200000Y-125200000D01*
X313600000Y-141400000D02*
X313200000Y-141400000D01*
X364400000Y-87000000D02*
X364400000Y-121400000D01*
%TO.N,Net-(J1-CC2)*%
X315400000Y-135400000D02*
X310600000Y-135400000D01*
X321200000Y-141200000D02*
X315400000Y-135400000D01*
%TO.N,Net-(U1-V_{DD})*%
X345000000Y-111600000D02*
X333800000Y-111600000D01*
X333800000Y-111600000D02*
X329200000Y-116200000D01*
%TO.N,Net-(U1-PROG)*%
X321600000Y-119400000D02*
X328600000Y-119400000D01*
X328600000Y-119400000D02*
X330800000Y-117200000D01*
%TD*%
%TA.AperFunction,Conductor*%
%TO.N,GND*%
G36*
X319919334Y-94615993D02*
G01*
X319975267Y-94657865D01*
X319999684Y-94723329D01*
X320000000Y-94732175D01*
X320000000Y-103725000D01*
X361675500Y-103725000D01*
X361742539Y-103744685D01*
X361788294Y-103797489D01*
X361799500Y-103849000D01*
X361799500Y-104099903D01*
X361779815Y-104166942D01*
X361763181Y-104187584D01*
X348387584Y-117563181D01*
X348326261Y-117596666D01*
X348299903Y-117599500D01*
X345686669Y-117599500D01*
X345686653Y-117599499D01*
X345679057Y-117599499D01*
X345520943Y-117599499D01*
X345431659Y-117623423D01*
X345368210Y-117640424D01*
X345368209Y-117640425D01*
X345328379Y-117663422D01*
X345328378Y-117663423D01*
X345231287Y-117719477D01*
X345231282Y-117719481D01*
X345173568Y-117777196D01*
X345119480Y-117831284D01*
X345119478Y-117831286D01*
X343837966Y-119112799D01*
X342587584Y-120363181D01*
X342526261Y-120396666D01*
X342499903Y-120399500D01*
X321902190Y-120399500D01*
X321835151Y-120379815D01*
X321789396Y-120327011D01*
X321779452Y-120257853D01*
X321808477Y-120194297D01*
X321854738Y-120160939D01*
X321979172Y-120109397D01*
X321979172Y-120109396D01*
X321979179Y-120109394D01*
X322024167Y-120079334D01*
X322110875Y-120021398D01*
X322177553Y-120000520D01*
X322179766Y-120000500D01*
X328513331Y-120000500D01*
X328513347Y-120000501D01*
X328520943Y-120000501D01*
X328679054Y-120000501D01*
X328679057Y-120000501D01*
X328831785Y-119959577D01*
X328881904Y-119930639D01*
X328968716Y-119880520D01*
X329080520Y-119768716D01*
X329080520Y-119768714D01*
X329090728Y-119758507D01*
X329090729Y-119758504D01*
X330814662Y-118034572D01*
X330875983Y-118001089D01*
X330878150Y-118000638D01*
X330936085Y-117989113D01*
X331033497Y-117969737D01*
X331179179Y-117909394D01*
X331310289Y-117821789D01*
X331421789Y-117710289D01*
X331509394Y-117579179D01*
X331515191Y-117565185D01*
X331529111Y-117531578D01*
X331569737Y-117433497D01*
X331600500Y-117278842D01*
X331600500Y-117121158D01*
X331600500Y-117121155D01*
X331600499Y-117121153D01*
X331598181Y-117109500D01*
X331569737Y-116966503D01*
X331546080Y-116909390D01*
X331509397Y-116820827D01*
X331509390Y-116820814D01*
X331421789Y-116689711D01*
X331421786Y-116689707D01*
X331310292Y-116578213D01*
X331310288Y-116578210D01*
X331179185Y-116490609D01*
X331179172Y-116490602D01*
X331033501Y-116430264D01*
X331033489Y-116430261D01*
X330878845Y-116399500D01*
X330878842Y-116399500D01*
X330721158Y-116399500D01*
X330721155Y-116399500D01*
X330566510Y-116430261D01*
X330566498Y-116430264D01*
X330420827Y-116490602D01*
X330420814Y-116490609D01*
X330289711Y-116578210D01*
X330289707Y-116578213D01*
X330178213Y-116689707D01*
X330178210Y-116689711D01*
X330090609Y-116820814D01*
X330090602Y-116820827D01*
X330030264Y-116966498D01*
X330030261Y-116966508D01*
X329999361Y-117121850D01*
X329966976Y-117183761D01*
X329965425Y-117185339D01*
X328387584Y-118763181D01*
X328326261Y-118796666D01*
X328299903Y-118799500D01*
X322179766Y-118799500D01*
X322112727Y-118779815D01*
X322110875Y-118778602D01*
X321979185Y-118690609D01*
X321979172Y-118690602D01*
X321833501Y-118630264D01*
X321833489Y-118630261D01*
X321678845Y-118599500D01*
X321678842Y-118599500D01*
X321521158Y-118599500D01*
X321521155Y-118599500D01*
X321366510Y-118630261D01*
X321366498Y-118630264D01*
X321220827Y-118690602D01*
X321220814Y-118690609D01*
X321089711Y-118778210D01*
X321089707Y-118778213D01*
X320978213Y-118889707D01*
X320978210Y-118889711D01*
X320890609Y-119020814D01*
X320890602Y-119020827D01*
X320830264Y-119166498D01*
X320830261Y-119166510D01*
X320799500Y-119321153D01*
X320799500Y-119478846D01*
X320830261Y-119633489D01*
X320830264Y-119633501D01*
X320890602Y-119779172D01*
X320890609Y-119779185D01*
X320978210Y-119910288D01*
X320978213Y-119910292D01*
X321089707Y-120021786D01*
X321089711Y-120021789D01*
X321220814Y-120109390D01*
X321220827Y-120109397D01*
X321345262Y-120160939D01*
X321399666Y-120204779D01*
X321421731Y-120271074D01*
X321404452Y-120338773D01*
X321353315Y-120386384D01*
X321297810Y-120399500D01*
X307924500Y-120399500D01*
X307857461Y-120379815D01*
X307811706Y-120327011D01*
X307800500Y-120275500D01*
X307800500Y-120121155D01*
X307800499Y-120121153D01*
X307783325Y-120034814D01*
X307769737Y-119966503D01*
X307747492Y-119912799D01*
X307709397Y-119820827D01*
X307709390Y-119820814D01*
X307621398Y-119689125D01*
X307600520Y-119622447D01*
X307600500Y-119620234D01*
X307600500Y-116121153D01*
X328399500Y-116121153D01*
X328399500Y-116278846D01*
X328430261Y-116433489D01*
X328430264Y-116433501D01*
X328490602Y-116579172D01*
X328490609Y-116579185D01*
X328578210Y-116710288D01*
X328578213Y-116710292D01*
X328689707Y-116821786D01*
X328689711Y-116821789D01*
X328820814Y-116909390D01*
X328820827Y-116909397D01*
X328936721Y-116957401D01*
X328966503Y-116969737D01*
X329102336Y-116996756D01*
X329121153Y-117000499D01*
X329121156Y-117000500D01*
X329121158Y-117000500D01*
X329278844Y-117000500D01*
X329278845Y-117000499D01*
X329433497Y-116969737D01*
X329579179Y-116909394D01*
X329710289Y-116821789D01*
X329821789Y-116710289D01*
X329909394Y-116579179D01*
X329910971Y-116575373D01*
X329940168Y-116504883D01*
X329969737Y-116433497D01*
X329993737Y-116312841D01*
X330000638Y-116278150D01*
X330033023Y-116216239D01*
X330034518Y-116214716D01*
X334012416Y-112236819D01*
X334073739Y-112203334D01*
X334100097Y-112200500D01*
X344420234Y-112200500D01*
X344487273Y-112220185D01*
X344489125Y-112221398D01*
X344620814Y-112309390D01*
X344620827Y-112309397D01*
X344737812Y-112357853D01*
X344766503Y-112369737D01*
X344895735Y-112395443D01*
X344921153Y-112400499D01*
X344921156Y-112400500D01*
X344921158Y-112400500D01*
X345078844Y-112400500D01*
X345078845Y-112400499D01*
X345233497Y-112369737D01*
X345379179Y-112309394D01*
X345510289Y-112221789D01*
X345621789Y-112110289D01*
X345709394Y-111979179D01*
X345712521Y-111971631D01*
X345741245Y-111902284D01*
X345769737Y-111833497D01*
X345800500Y-111678842D01*
X345800500Y-111521158D01*
X345800500Y-111521155D01*
X345800499Y-111521153D01*
X345793214Y-111484530D01*
X345769737Y-111366503D01*
X345749808Y-111318390D01*
X345709397Y-111220827D01*
X345709390Y-111220814D01*
X345621789Y-111089711D01*
X345621786Y-111089707D01*
X345510292Y-110978213D01*
X345510288Y-110978210D01*
X345379185Y-110890609D01*
X345379172Y-110890602D01*
X345233501Y-110830264D01*
X345233489Y-110830261D01*
X345078845Y-110799500D01*
X345078842Y-110799500D01*
X344921158Y-110799500D01*
X344921155Y-110799500D01*
X344766510Y-110830261D01*
X344766498Y-110830264D01*
X344620827Y-110890602D01*
X344620814Y-110890609D01*
X344489125Y-110978602D01*
X344422447Y-110999480D01*
X344420234Y-110999500D01*
X333720940Y-110999500D01*
X333680019Y-111010464D01*
X333680019Y-111010465D01*
X333642751Y-111020451D01*
X333568214Y-111040423D01*
X333568209Y-111040426D01*
X333431290Y-111119475D01*
X333431282Y-111119481D01*
X329185339Y-115365425D01*
X329124016Y-115398910D01*
X329121850Y-115399361D01*
X328966508Y-115430261D01*
X328966498Y-115430264D01*
X328820827Y-115490602D01*
X328820814Y-115490609D01*
X328689711Y-115578210D01*
X328689707Y-115578213D01*
X328578213Y-115689707D01*
X328578210Y-115689711D01*
X328490609Y-115820814D01*
X328490602Y-115820827D01*
X328430264Y-115966498D01*
X328430261Y-115966510D01*
X328399500Y-116121153D01*
X307600500Y-116121153D01*
X307600500Y-109924500D01*
X307620185Y-109857461D01*
X307672989Y-109811706D01*
X307724500Y-109800500D01*
X307830528Y-109800500D01*
X313079016Y-109800500D01*
X313079032Y-109800501D01*
X313086628Y-109800501D01*
X313244739Y-109800501D01*
X313244742Y-109800501D01*
X313397470Y-109759577D01*
X313464013Y-109721158D01*
X313534401Y-109680520D01*
X313646205Y-109568716D01*
X313646205Y-109568714D01*
X313656409Y-109558511D01*
X313656413Y-109558506D01*
X313914114Y-109300804D01*
X313975435Y-109267321D01*
X314045127Y-109272305D01*
X314089474Y-109300806D01*
X314168094Y-109379426D01*
X314168098Y-109379429D01*
X314299201Y-109467030D01*
X314299214Y-109467037D01*
X314438606Y-109524774D01*
X314444890Y-109527377D01*
X314599540Y-109558139D01*
X314599543Y-109558140D01*
X314599545Y-109558140D01*
X314757231Y-109558140D01*
X314757232Y-109558139D01*
X314911884Y-109527377D01*
X315057566Y-109467034D01*
X315188676Y-109379429D01*
X315300176Y-109267929D01*
X315387781Y-109136819D01*
X315448124Y-108991137D01*
X315478887Y-108836482D01*
X315478887Y-108723569D01*
X315498572Y-108656530D01*
X315515206Y-108635888D01*
X316878105Y-107272989D01*
X318241489Y-105909604D01*
X318302810Y-105876121D01*
X318372502Y-105881105D01*
X318398060Y-105894186D01*
X318420813Y-105909389D01*
X318420815Y-105909390D01*
X318420821Y-105909394D01*
X318420823Y-105909395D01*
X318420827Y-105909397D01*
X318566498Y-105969735D01*
X318566503Y-105969737D01*
X318716030Y-105999480D01*
X318721153Y-106000499D01*
X318721156Y-106000500D01*
X318721158Y-106000500D01*
X318878844Y-106000500D01*
X318878845Y-106000499D01*
X319033497Y-105969737D01*
X319179179Y-105909394D01*
X319310289Y-105821789D01*
X319421789Y-105710289D01*
X319509394Y-105579179D01*
X319569737Y-105433497D01*
X319600500Y-105278842D01*
X319600500Y-105121158D01*
X319600500Y-105121155D01*
X319600499Y-105121153D01*
X319594423Y-105090606D01*
X319569737Y-104966503D01*
X319509795Y-104821789D01*
X319509397Y-104820827D01*
X319509390Y-104820814D01*
X319421789Y-104689711D01*
X319421786Y-104689707D01*
X319310292Y-104578213D01*
X319310288Y-104578210D01*
X319179185Y-104490609D01*
X319179172Y-104490602D01*
X319033501Y-104430264D01*
X319033489Y-104430261D01*
X318878845Y-104399500D01*
X318878842Y-104399500D01*
X318724500Y-104399500D01*
X318657461Y-104379815D01*
X318611706Y-104327011D01*
X318600500Y-104275500D01*
X318600500Y-95883675D01*
X318620185Y-95816636D01*
X318636819Y-95795994D01*
X319788319Y-94644494D01*
X319849642Y-94611009D01*
X319919334Y-94615993D01*
G37*
%TD.AperFunction*%
%TD*%
M02*
